<svg xmlns="http://www.w3.org/2000/svg" xmlns:xlink="http://www.w3.org/1999/xlink" width="226" height="72.00000000000001"><path fill="#ffc107" stroke="#8B6914" d="M222.39 34.85C222.25 34.92 222.03 35.06 221.82 35.06C221.38 35.14 220.95 35.14 220.52 35.06C218.79 34.78 217.06 35.21 215.34 35.14C214.98 35.14 214.62 35.21 214.18 35.21C213.75 35.28 213.32 35.42 212.96 35.35C211.52 35.06 210.22 35.28 208.86 35.78C208.57 35.93 208.21 35.93 207.92 35.93C206.98 35.93 206.12 35.93 205.18 35.71C204.61 35.57 203.89 35.71 203.17 35.71C203.02 36.07 202.81 36.43 202.81 36.79C202.74 37.73 202.81 38.74 202.74 39.67C202.74 39.89 202.74 40.10 202.74 40.32C202.66 40.97 202.52 41.69 203.31 42.05C203.38 42.12 203.46 42.26 203.46 42.41C203.60 43.78 204.10 45.00 204.82 46.15C205.47 46.44 206.19 46.66 206.91 46.94C207.13 47.09 207.49 47.30 207.49 47.52C207.56 48.17 207.99 48.24 208.42 48.53C208.86 48.74 209.14 48.82 209.65 48.74C210.08 48.67 210.58 48.74 211.02 48.74C211.45 48.74 211.88 48.89 212.31 48.82C212.96 48.82 213.61 48.74 214.26 48.60C214.98 48.38 215.70 47.95 216.34 47.66C216.42 47.59 216.56 47.59 216.63 47.52C216.99 46.58 217.93 46.15 218.36 45.29C218.50 45.14 218.58 44.86 218.72 44.78C219.30 44.50 219.37 43.92 219.37 43.34C219.44 42.62 219.80 42.34 220.45 42.26C221.10 42.26 221.74 42.26 222.32 42.26C222.39 42.34 222.46 42.41 222.54 42.48C222.75 43.06 222.39 43.49 222.25 43.99C222.10 44.50 222.68 44.86 222.46 45.36C222.32 45.72 222.18 46.15 221.96 46.37C221.53 46.87 221.24 47.38 221.10 48.02C221.02 48.53 220.74 48.89 220.09 48.89C219.87 48.89 219.66 49.03 219.58 49.25C219.08 50.33 218.07 50.83 217.35 51.62C217.21 51.77 216.92 51.84 216.70 51.84C216.13 51.77 215.98 52.20 215.77 52.63C215.62 52.63 215.41 52.70 215.26 52.70C214.69 52.92 214.04 52.85 213.68 53.42C212.89 53.50 212.24 54.00 211.45 53.64C211.30 53.57 211.09 53.50 210.87 53.57C209.29 53.93 207.78 53.42 206.12 53.21C205.98 52.85 205.83 52.49 205.69 52.13C204.90 51.84 204.18 51.48 203.82 50.62C202.59 49.75 202.09 48.31 200.86 47.38C200.50 47.16 200.22 46.51 200.14 46.08C200 45.43 199.78 44.93 199.42 44.50C198.99 43.99 198.85 43.42 198.92 42.77C198.92 42.19 198.92 41.62 198.85 41.11C198.78 40.75 198.78 40.32 198.56 40.10C197.98 39.53 197.98 38.74 197.91 38.02C197.84 37.30 197.70 36.58 197.91 35.86C198.06 35.28 197.77 34.63 197.70 34.06C197.70 33.84 197.55 33.62 197.62 33.48C198.13 32.83 197.91 32.04 198.20 31.32C198.49 30.67 198.49 30.02 198.49 29.38C198.49 28.30 198.78 27.29 199.50 26.50C200.07 25.78 200.36 24.98 200.65 24.12C200.72 23.83 200.86 23.47 201.15 23.54C201.94 23.54 202.30 22.97 202.59 22.46C203.24 21.53 204.10 20.88 205.04 20.38C205.62 20.09 206.19 19.66 206.70 19.30C206.84 19.22 206.91 19.01 206.98 19.01C208.28 18.50 209.58 17.71 211.09 17.93C211.23 17.93 211.45 17.93 211.59 17.86C212.02 17.78 212.46 17.78 212.82 18.07C213.32 18.50 213.90 18.36 214.47 18.36C215.12 18.36 215.70 18.36 216.27 18.65C216.42 18.72 216.63 18.79 216.63 18.86C216.78 19.73 217.71 19.73 218.07 20.38C218.36 20.95 219.01 21.31 219.51 21.74C219.66 21.82 219.73 21.96 219.87 22.03C220.59 22.18 220.81 22.75 220.95 23.40C221.10 24.12 221.46 24.84 221.60 25.56C221.89 27.43 222.46 29.30 222.54 31.18C222.54 31.54 222.68 31.82 222.75 32.18C222.75 32.40 222.82 32.62 222.75 32.83C222.68 33.48 222.54 34.06 222.39 34.85ZM218.94 40.54C219.51 40.25 219.51 40.32 219.80 39.89C220.16 39.96 220.52 39.82 220.66 39.38C220.95 38.59 221.24 37.80 222.18 37.73C222.68 37.22 223.26 36.72 223.47 36C223.62 35.28 224.26 34.56 223.69 33.70C223.62 33.55 223.69 33.26 223.69 32.98C223.76 32.11 223.83 31.25 223.83 30.46C223.90 30.17 223.98 29.88 223.83 29.74C223.11 29.02 223.47 28.01 223.26 27.22C223.04 26.64 223.18 25.99 223.11 25.34C223.04 23.76 222.25 22.54 221.10 21.38C220.45 20.81 219.87 20.09 219.15 19.58C218.79 19.37 218.58 19.08 218.29 18.79C218 18.36 217.64 17.93 217.35 17.57C216.13 17.57 215.05 17.50 213.90 17.06C213.03 16.78 212.02 16.78 211.09 16.70C210.87 16.70 210.66 16.70 210.58 16.85C210.08 17.42 209.58 17.64 208.86 17.28C208.78 17.21 208.57 17.21 208.50 17.21C207.42 17.50 206.41 17.78 205.40 18.14C204.97 18.29 204.68 18.58 204.18 18.22C203.96 18 203.60 18.22 203.38 18.43C202.74 19.22 201.73 19.51 200.79 19.73C200.29 19.87 199.86 20.09 199.50 20.45C198.70 21.31 197.70 22.03 196.98 23.04C196.76 23.40 196.33 23.69 196.11 24.12C195.75 24.77 195.54 25.49 195.25 26.21C195.10 26.64 195.10 27.22 194.53 27.36C194.38 27.43 194.31 27.65 194.31 27.86C194.17 28.30 194.10 28.80 194.24 29.30C194.31 29.59 194.31 29.95 194.02 30.31C193.74 30.67 193.59 31.18 193.45 31.61C192.94 33.91 192.80 36.29 192.87 38.59C192.87 39.02 193.02 39.38 193.02 39.74C193.16 40.90 193.52 42.05 193.45 43.13C193.38 44.14 193.38 44.93 194.10 45.65C194.31 45.94 194.31 46.44 194.46 46.87C194.82 47.95 194.82 49.18 195.82 49.97C196.26 51.26 197.12 52.20 198.20 53.14C198.34 53.21 198.42 53.42 198.49 53.57C198.92 54.36 199.57 54.94 200.43 55.22C200.86 55.37 201.30 55.58 201.73 55.80C201.87 55.87 202.16 55.94 202.16 56.02C202.45 56.74 203.02 56.74 203.60 56.81C204.03 56.88 204.46 56.95 204.90 57.31C205.11 57.53 205.47 57.67 205.76 57.67C206.34 57.67 206.91 57.74 207.49 57.82C208.35 57.82 209.14 58.03 210.01 57.60C210.44 57.38 211.02 57.24 211.38 57.38C212.46 57.82 213.25 57.46 214.04 56.88C214.18 56.81 214.26 56.74 214.33 56.74C215.34 56.59 215.98 55.94 216.78 55.37C217.14 55.08 217.42 54.65 218 54.58C218.07 54.58 218.29 54.36 218.29 54.22C218.65 53.35 219.44 52.99 220.23 52.42C220.16 51.91 220.52 51.48 220.38 50.83C220.30 50.40 220.59 50.04 220.88 49.68C221.67 48.96 222.03 47.95 222.82 47.30C222.97 47.23 223.04 47.09 223.04 46.94C223.62 45.14 223.98 43.34 223.62 41.47C222.39 40.82 222.03 40.75 220.95 40.97C220.45 41.11 219.08 41.54 218.58 41.40C217.57 41.83 216.70 42.34 215.70 42.48C214.69 42.62 213.68 42.98 212.60 43.27C212.31 44.50 212.53 45.94 212.02 47.23C211.59 47.45 211.02 47.45 210.51 47.38C210.01 47.38 209.50 47.23 209 47.16C208.71 47.09 206.48 45.79 206.34 45.50C206.26 45.43 206.19 45.36 206.19 45.29C206.05 44.21 205.18 43.49 204.54 42.70C204.18 42.19 203.89 41.69 204.39 40.97C204.90 40.82 205.40 40.75 205.98 40.97C206.26 41.11 206.62 41.18 206.77 41.11C207.42 40.75 208.06 40.90 208.78 40.90C209.29 40.82 209.86 41.04 210.44 40.68C210.58 40.61 210.80 40.68 211.02 40.68C211.74 40.82 212.46 40.90 213.25 41.04C214.33 41.33 215.48 41.33 216.63 41.11C216.92 41.04 217.28 40.97 217.64 40.97C217.78 40.97 218.65 40.39 218.94 40.54ZM204.61 31.61C205.54 31.61 205.54 31.61 206.19 31.10C206.34 31.03 206.55 30.89 206.77 30.82C207.13 30.74 207.49 30.60 207.78 30.67C208.93 30.89 210.08 30.67 211.16 30.67C212.24 30.74 213.25 30.53 214.26 30.31C215.19 30.10 216.20 29.95 217.14 30.53C217.64 30.24 218.07 30.02 218.50 29.74C218.50 29.30 218.36 29.02 218.43 28.66C218.65 27.65 218.22 26.71 217.93 25.78C217.71 24.98 217.28 24.34 216.85 23.62C216.34 22.90 215.55 22.68 214.76 22.46C213.61 22.03 213.61 22.03 212.17 22.61C212.02 22.68 211.81 22.68 211.66 22.68C211.38 22.61 211.16 22.54 211.09 22.46C210.30 22.75 209.65 23.18 209 23.26C208.06 23.26 207.49 23.76 206.98 24.41C206.84 24.70 206.55 24.98 206.34 25.13C205.90 25.42 205.62 25.85 205.47 26.28C205.26 27.29 204.75 28.15 204.10 28.94C203.74 29.38 203.53 29.88 203.60 30.46C203.89 30.82 204.18 31.18 204.61 31.61ZM210.80 29.30C210.30 29.30 210.01 29.30 209.65 29.30C209.29 29.38 208.93 29.30 208.57 29.59C208.35 29.74 207.99 29.81 207.78 29.74C206.98 29.59 206.26 29.66 205.47 29.74C205.47 29.74 205.33 29.66 205.26 29.59C205.26 29.52 205.26 29.38 205.26 29.30C206.34 28.30 206.70 26.78 207.85 25.70C208.50 26.06 209 26.42 209.72 26.50C209.94 26.50 210.22 26.86 210.37 27.14C210.73 27.79 210.94 28.51 210.80 29.30Z"/></svg>