<svg xmlns="http://www.w3.org/2000/svg" xmlns:xlink="http://www.w3.org/1999/xlink" width="95" height="72.00000000000001"><path fill="#ffc107" stroke="#8B6914" d="M80.59 55.66C81.17 56.16 81.82 56.30 82.61 56.30C83.40 56.23 84.19 56.30 84.98 56.30C85.27 56.30 85.56 56.30 85.70 56.38C86.50 56.95 87.36 56.66 88.22 56.88C88.73 57.02 89.16 56.74 89.38 56.23C89.52 55.94 89.59 55.66 89.74 55.30C89.88 54.86 89.95 54.36 90.38 54.00C90.53 53.86 90.60 53.64 90.67 53.42C91.10 52.20 91.61 50.98 91.54 49.68C91.46 49.03 91.82 48.46 91.46 47.88C91.39 47.81 91.46 47.59 91.54 47.45C92.04 46.80 91.82 46.08 91.61 45.36C91.54 45.00 91.46 44.64 91.61 44.28C92.26 42.77 91.61 41.11 91.90 39.60C91.54 38.74 91.75 37.87 91.82 37.08C91.90 36.50 91.97 36 91.82 35.50C91.68 34.78 91.75 34.06 91.97 33.41C92.11 32.98 92.18 32.54 92.04 32.11C91.97 31.75 91.97 31.25 92.04 30.89C92.11 30.38 92.33 29.95 92.47 29.45C92.54 29.16 92.47 28.94 92.33 28.66C91.90 27.79 91.75 26.50 92.18 25.78C92.54 25.27 92.62 24.77 92.47 24.19C92.26 23.40 92.18 22.61 92.26 21.74C92.33 21.24 92.33 20.74 92.18 20.23C91.82 20.23 91.54 20.23 91.25 20.30C90.82 20.38 90.53 20.16 90.24 19.87C90.24 19.87 90.10 19.94 90.02 19.94C89.88 20.09 89.74 20.30 89.59 20.52C89.02 20.16 88.51 20.02 88.15 20.66C88.08 20.74 87.94 20.81 87.86 20.81C87.43 20.81 87 20.66 86.64 20.81C86.06 20.95 85.85 20.30 85.34 20.38C85.06 20.52 84.77 20.74 84.48 20.95C84.05 21.31 83.76 21.96 83.11 22.10C83.04 22.10 82.97 22.25 82.90 22.32C82.68 22.97 81.89 23.26 81.74 24.05C81.67 24.41 81.17 24.62 80.66 24.41C80.59 24.34 80.52 24.41 80.30 24.48C80.16 25.06 79.58 25.56 80.16 26.28C80.16 27.43 80.38 28.51 80.45 29.66C80.59 31.10 80.38 32.54 80.23 33.91C80.09 34.85 80.16 35.71 80.66 36.50C80.16 36.94 80.16 37.44 80.23 37.94C80.30 39.02 80.66 40.10 80.38 41.18C80.38 41.26 80.45 41.40 80.45 41.47C80.45 41.83 80.59 42.26 80.45 42.62C80.38 42.91 80.09 43.20 79.87 43.49C80.02 44.21 80.23 44.86 80.30 45.50C80.38 46.08 80.45 46.66 80.30 47.16C80.16 47.66 80.16 48.10 80.16 48.60C80.16 49.25 80.30 49.90 80.38 50.54C80.52 51.26 80.30 51.98 80.30 52.70C80.30 52.70 80.30 52.78 80.30 52.85C80.38 53.78 80.52 54.72 80.59 55.66ZM89.59 50.98C88.51 51.41 87.43 50.98 86.28 50.90C86.28 50.33 85.92 49.90 86.06 49.39C86.14 49.18 85.99 48.89 85.99 48.67C85.99 48.38 85.85 48.02 85.92 47.66C85.99 46.44 85.92 45.22 85.63 43.99C85.49 43.49 85.42 42.84 85.56 42.34C85.63 41.76 85.70 41.26 85.42 40.75C85.34 40.61 85.42 40.39 85.49 40.25C85.78 39.96 85.70 39.67 85.70 39.31C85.78 38.45 85.85 37.66 85.92 36.79C85.92 36.65 85.92 36.58 85.92 36.50C85.56 35.06 85.78 33.62 85.70 32.26C85.70 31.25 85.63 30.31 85.78 29.38C85.85 28.87 85.56 28.22 85.70 27.72C85.85 27.22 85.99 26.71 85.92 26.21C85.92 25.85 85.92 25.49 85.85 25.20C85.49 24.05 85.63 22.97 85.70 21.82C85.70 21.67 85.85 21.53 85.92 21.38C86.28 21.53 86.57 21.60 86.86 21.67C87.29 21.74 87.72 21.82 88.22 21.67C88.58 21.53 89.09 21.74 89.52 21.74C89.95 21.67 90.38 21.60 90.89 21.60C91.10 22.18 91.03 22.90 91.32 23.47C91.46 23.76 91.46 24.12 91.32 24.48C91.18 25.27 91.18 26.06 91.10 26.86C91.10 27.14 91.03 27.43 90.96 27.72C90.82 28.08 90.74 28.44 90.96 28.80C91.03 28.94 91.10 29.16 91.03 29.23C90.38 29.95 90.82 30.82 90.74 31.54C90.53 32.90 90.60 34.20 90.82 35.57C90.89 36.22 90.89 36.86 90.38 37.44C90.24 37.58 90.31 37.87 90.31 38.16C90.31 38.95 90.24 39.74 90.46 40.54C90.67 41.40 90.46 42.19 90.38 43.06C90.31 44.57 90.31 46.01 90.31 47.52C90.38 48.31 90.38 49.03 90.02 49.75C89.81 50.11 89.74 50.54 89.59 50.98ZM92.33 4.54C91.18 4.39 90.24 4.25 89.30 4.25C88.37 4.18 87.58 3.46 86.57 3.53C86.06 4.03 85.56 4.61 84.98 5.11C84.41 5.54 83.83 5.98 83.18 6.26C82.75 6.41 82.46 6.55 82.25 6.98C82.03 7.42 81.89 7.78 81.96 8.21C82.03 8.71 82.10 9.14 82.18 9.65C82.25 10.44 82.32 11.30 82.46 12.02C82.68 12.82 82.90 13.46 82.75 14.26C82.68 14.33 82.68 14.47 82.75 14.54C82.82 14.69 82.97 14.83 83.11 14.90C83.18 14.98 83.40 14.90 83.47 14.76C83.69 14.54 83.83 14.26 84.05 14.04C85.34 14.18 86.64 14.33 87.86 14.54C88.44 14.62 88.73 14.40 89.02 14.11C89.23 13.90 89.38 13.39 89.66 13.25C90.46 12.89 90.67 12.24 90.89 11.59C91.03 11.30 91.10 11.09 91.18 10.80C92.04 10.58 92.40 10.01 92.47 9.22C91.90 8.28 91.90 8.28 92.26 7.27C92.33 6.98 92.40 6.70 92.33 6.48C92.18 5.83 92.11 5.26 92.33 4.54ZM90.53 5.76C90.53 6.70 90.53 7.63 90.53 8.64C89.66 9.14 88.80 9.22 87.79 9.07C87.29 9 87.07 8.78 87.07 8.21C87.07 7.92 87.14 7.63 87.14 7.34C87.14 6.98 87.50 6.48 86.86 6.26C86.78 6.19 86.86 5.76 86.93 5.54C87.14 5.26 87.36 5.04 87.50 4.90C88.73 4.90 89.59 5.33 90.53 5.76Z"/></svg>