<svg xmlns="http://www.w3.org/2000/svg" xmlns:xlink="http://www.w3.org/1999/xlink" width="31.248000000000005" height="72.00000000000001"><path fill="#ffc107" stroke="#8B6914" d="M21.24 55.58C21.17 55.51 21.17 55.44 21.17 55.30C21.17 55.44 21.17 55.51 21.24 55.58C21.74 55.01 22.32 54.36 22.90 53.71C23.26 53.28 23.76 52.92 23.98 52.42C24.41 51.55 25.06 50.90 25.78 50.33C25.99 49.54 26.14 48.82 26.35 48.02C26.50 47.52 26.86 47.02 26.71 46.37C26.71 46.22 26.78 45.94 26.93 45.86C27.36 45.72 27.36 45.29 27.29 44.93C27.14 43.92 27.36 43.06 27.65 42.12C27.79 41.62 27.94 41.18 27.86 40.61C27.72 39.74 27.86 38.88 27.94 38.02C27.94 37.87 28.01 37.73 28.15 37.66C28.51 37.30 28.51 36.79 28.51 36.29C28.44 35.64 28.44 34.99 28.66 34.34C28.80 33.98 28.73 33.48 28.58 33.12C28.30 32.40 28.37 31.82 28.37 31.10C28.44 30.02 28.87 29.02 28.58 27.86C28.51 27.58 28.58 27.22 28.66 26.93C28.94 26.28 28.94 25.63 28.94 24.91C28.87 24.48 29.02 24.12 29.09 23.69C29.16 23.26 28.80 22.90 28.94 22.39C29.16 21.89 29.09 21.31 28.87 20.74C28.73 20.45 28.73 20.16 28.73 19.87C28.80 19.01 28.87 18.14 28.94 17.28C29.02 16.63 29.16 15.98 28.73 15.34C28.51 15.12 28.66 14.69 28.66 14.40C28.80 13.18 28.94 11.95 28.44 10.73C28.22 10.22 28.22 9.72 28.08 9.22C27.86 7.85 27.94 6.41 27.65 5.11C27.50 4.75 27.50 4.39 27.65 4.10C27.94 3.38 27.72 2.74 27.50 1.94C27.14 1.80 26.78 1.44 26.35 1.44C25.49 1.37 24.55 1.37 23.69 1.44C22.82 1.58 21.96 1.66 21.10 1.66C20.74 1.66 20.30 1.80 20.02 1.87C19.80 1.94 19.51 2.16 19.44 2.30C19.15 3.10 18.29 3.38 17.86 4.03C16.78 4.54 16.13 5.62 14.90 5.98C14.90 6.26 14.90 6.48 14.98 6.62C15.26 7.20 15.34 7.78 14.90 8.35C14.83 8.57 14.76 8.86 14.90 9.07C15.19 9.86 15.05 10.73 14.98 11.59C14.98 12.89 14.90 14.18 15.05 15.48C15.12 16.20 15.19 16.99 15.12 17.71C15.05 18.36 15.12 18.94 15.19 19.58C15.41 20.95 15.84 22.39 15.34 23.76C15.26 23.90 15.34 24.05 15.41 24.19C15.62 25.20 15.84 26.14 16.06 27.07C16.13 27.36 16.20 27.65 15.98 27.86C15.84 28.01 15.77 28.15 15.77 28.22C15.84 29.52 15.84 30.82 15.98 32.11C16.06 32.90 16.34 33.70 16.27 34.49C16.13 35.78 16.42 37.01 16.56 38.23C16.63 38.45 16.63 38.74 16.70 38.88C17.21 39.46 17.06 40.18 17.06 40.82C16.99 41.54 16.99 42.26 16.92 42.98C16.85 44.28 16.49 45.58 15.55 46.51C14.62 46.51 13.75 46.51 12.89 46.51C12.38 45.50 11.59 44.78 10.73 44.14C10.73 42.91 9.94 41.83 10.01 40.54C10.01 40.03 9.29 39.67 8.71 39.82C8.14 39.96 7.49 40.10 6.91 40.25C6.34 40.46 5.76 40.68 5.18 40.82C4.61 40.97 4.25 41.18 3.96 41.69C3.53 42.48 2.88 43.13 2.02 43.49C1.08 43.78 0.58 44.50 0.50 45.58C0.50 45.94 0.50 46.30 0.50 46.73C0.50 47.02 0.50 47.30 0.65 47.52C1.22 48.24 1.30 49.10 1.37 49.97C1.44 50.54 1.66 51.05 2.16 51.48C2.45 51.70 2.74 51.98 2.81 52.34C2.88 52.85 3.24 53.14 3.53 53.50C3.89 53.93 4.46 54.22 4.54 54.86C4.54 55.01 4.61 55.08 4.68 55.15C5.26 55.51 5.83 56.02 6.48 56.23C7.78 56.81 9.14 57.24 10.51 57.67C10.94 57.74 11.38 57.82 11.81 57.82C12.53 57.82 13.25 57.82 13.97 57.89C14.62 58.03 15.26 57.96 15.91 57.60C16.34 57.38 16.70 57.24 17.21 57.24C18.14 57.17 19.01 56.81 19.80 56.45C20.09 55.87 20.74 55.80 21.24 55.58ZM20.88 18.43C21.02 17.86 21.24 17.50 21.24 17.06C21.10 16.06 21.17 15.12 20.88 14.11C20.81 13.82 20.74 13.46 20.81 13.10C21.10 11.81 20.81 10.58 20.52 9.36C20.30 8.50 20.09 7.70 20.52 6.84C20.52 6.77 20.52 6.62 20.52 6.55C20.02 5.98 20.38 5.33 20.52 4.68C20.59 4.25 20.59 3.89 20.66 3.38C21.10 2.95 21.67 2.81 22.39 2.88C23.18 2.95 24.05 2.88 24.84 2.81C25.27 2.81 25.63 2.66 26.14 2.52C26.35 2.88 26.50 3.31 26.42 3.82C26.42 4.10 26.21 4.32 26.28 4.54C26.57 5.04 26.28 5.54 26.42 6.05C26.64 6.70 26.64 7.42 26.64 8.14C26.71 9.14 26.86 10.15 27.14 11.09C27.29 11.38 27.36 11.74 27.29 12.10C27.22 12.96 27.29 13.82 27.36 14.76C27.50 15.55 27.94 16.42 27.50 17.28C27.86 18.07 27.43 18.86 27.58 19.66C27.65 20.38 27.29 21.17 27.86 21.82C28.01 21.96 28.01 22.39 27.94 22.68C27.72 23.54 27.94 24.41 27.58 25.34C27.36 25.85 27.29 26.50 27.72 27.07C27.94 27.43 27.86 27.79 27.50 28.08C27.22 28.30 27.36 28.66 27.36 28.87C27.50 29.88 27.79 30.89 27.58 31.90C27.36 32.69 27.65 33.48 27.36 34.27C27.14 34.99 27.07 35.86 26.93 36.65C26.78 37.22 26.71 37.73 26.64 38.30C26.57 38.81 26.71 39.24 26.93 39.67C26.21 40.54 25.92 41.54 25.99 42.70C26.06 43.63 25.49 44.42 25.27 45.29C25.20 45.50 25.06 45.72 25.06 45.94C25.06 46.94 24.48 47.66 23.98 48.46C23.90 48.53 23.83 48.74 23.69 48.74C22.82 49.10 22.32 49.90 21.67 50.54C20.59 50.62 19.73 51.05 18.86 51.77C17.50 51.62 15.98 51.84 14.54 51.48C14.18 51.41 13.90 51.41 13.61 51.19C13.46 51.05 13.25 50.98 13.10 51.05C12.38 51.12 11.88 50.90 11.38 50.47C10.73 49.97 9.94 49.68 9.22 49.46C8.71 49.32 8.42 49.10 8.14 48.74C7.70 48.24 7.56 47.59 6.84 47.23C6.70 47.16 6.70 46.73 6.62 46.44C6.55 45.94 6.41 45.58 6.05 45.22C5.83 45.00 5.69 44.57 5.69 44.28C5.69 43.70 5.69 43.06 5.47 42.48C5.40 42.12 5.62 41.76 5.98 41.69C6.48 41.54 6.98 41.47 7.49 41.47C8.42 41.47 8.71 41.76 8.93 42.70C9.00 43.20 9.07 43.63 9.65 43.92C9.86 43.99 9.94 44.35 10.08 44.57C10.15 44.78 10.15 45.14 10.37 45.22C10.87 45.58 11.02 46.15 11.16 46.73C11.23 47.23 11.59 47.38 12.02 47.59C12.96 47.95 14.04 47.88 14.98 47.66C15.55 47.52 16.13 47.02 16.78 46.94C16.99 46.44 17.35 47.02 17.78 46.73C17.78 46.66 18.00 46.44 18.07 46.30C18.29 45.79 18.58 45.50 19.01 45.29C19.66 44.93 20.02 44.42 20.16 43.70C20.30 43.13 20.45 42.48 20.81 41.98C21.53 40.82 21.67 39.53 21.60 38.23C21.60 37.37 21.60 36.43 21.53 35.50C21.46 34.63 21.46 33.84 21.74 32.98C21.89 32.54 21.96 31.97 21.60 31.46C21.46 31.32 21.53 31.03 21.53 30.74C21.53 30.02 21.60 29.30 21.60 28.58C21.60 28.37 21.60 28.08 21.53 27.94C20.95 27.22 21.17 26.50 21.24 25.70C21.31 25.06 21.24 24.41 21.10 23.76C21.02 23.11 20.88 22.46 21.10 21.89C21.53 20.66 21.38 19.44 20.88 18.43Z"/></svg>