<svg xmlns="http://www.w3.org/2000/svg" xmlns:xlink="http://www.w3.org/1999/xlink" width="191" height="72.00000000000001"><path fill="#ffc107" stroke="#8B6914" d="M184.62 57.96C184.84 57.60 185.20 57.17 185.49 56.74C185.78 56.23 186.21 55.80 186.35 55.30C186.64 53.86 187.50 52.92 188.44 51.98C188.73 51.70 188.87 51.41 188.80 51.05C188.73 50.62 188.80 50.11 188.44 49.68C188.15 49.39 188.15 49.03 188.30 48.60C188.58 47.74 188.51 46.87 188.22 45.94C188.01 45.29 187.72 44.57 188.22 43.92C188.30 43.85 188.30 43.70 188.22 43.63C187.58 43.34 187.79 42.70 187.94 42.26C188.08 41.54 188.22 40.90 187.94 40.18C187.79 39.82 187.94 39.24 188.01 38.81C188.01 38.23 188.15 37.58 188.01 37.08C187.50 35.35 187.86 33.48 187.29 31.68C187.22 31.54 187.29 31.32 187.29 31.10C187.29 30.89 187.36 30.60 187.29 30.46C186.86 29.59 187.07 28.66 186.86 27.72C186.78 27.36 186.71 27.00 187 26.64C187 25.63 187.14 24.62 186.71 23.69C186.64 23.47 186.50 23.18 186.57 23.04C186.78 22.03 186.64 21.10 186.57 20.16C186.57 19.51 186.35 18.86 186.21 18.14C185.85 18 185.85 17.71 185.92 17.35C185.99 17.21 185.99 16.99 185.99 16.78C185.92 16.06 185.92 15.41 185.78 14.69C185.70 13.97 186.06 13.25 185.63 12.60C185.56 12.38 185.56 12.10 185.63 11.88C185.92 11.30 185.78 10.66 185.70 10.08C185.63 9.22 185.56 8.35 185.49 7.49C185.34 6.77 185.20 5.98 185.06 5.26C184.91 4.68 184.62 4.61 184.05 4.61C183.83 4.68 183.54 4.68 183.26 4.68C180.95 4.68 178.65 4.61 176.34 4.61C175.62 4.61 174.90 4.54 174.26 4.82C173.54 5.18 172.74 4.68 172.02 4.90C171.95 4.90 171.88 4.97 171.81 5.04C171.66 5.40 171.59 5.76 171.45 6.12C170.44 5.90 169.86 6.55 169.58 7.20C169.29 7.85 168.78 8.21 168.28 8.64C167.34 9.29 166.41 9.79 165.54 10.44C165.04 10.87 164.68 11.38 164.54 12.10C164.46 12.38 164.39 12.74 164.32 13.03C164.18 13.68 163.89 14.33 164.18 14.98C164.25 15.19 164.18 15.34 164.03 15.48C163.89 15.70 163.74 15.91 163.74 16.13C163.74 16.78 163.82 17.42 163.67 18.07C163.53 18.72 163.17 19.30 162.88 19.94C162.88 19.94 162.88 20.02 162.88 20.09C162.74 21.46 161.94 22.75 161.80 24.19C161.80 24.62 161.58 24.98 161.37 25.34C161.08 25.85 160.50 26.28 160.86 27.00C160.94 27.07 160.79 27.22 160.65 27.36C160.65 27.43 160.50 27.43 160.43 27.43C160.36 27.43 160.22 27.29 160.22 27.22C160.22 27.00 160.22 26.78 160.14 26.57C160.07 26.06 160.07 25.49 159.71 25.06C159.28 24.62 158.99 24.19 158.56 23.76C158.27 23.47 158.13 23.11 158.13 22.75C158.20 21.89 157.91 21.17 157.48 20.45C157.12 19.66 156.98 18.72 156.26 18.14C156.11 18.07 156.11 17.86 156.04 17.71C155.75 16.92 155.46 16.13 155.10 15.34C154.74 15.19 154.31 14.98 154.31 14.54C154.24 13.75 153.95 13.18 153.38 12.67C153.38 12.60 153.30 12.53 153.30 12.38C152.94 11.81 152.66 11.23 152.30 10.58C152.30 10.44 152.37 10.15 152.37 9.79C151.43 9.29 151.22 8.42 151.07 7.56C151 6.91 150.71 6.48 150.35 5.98C150.06 5.54 149.70 5.04 149.49 4.54C149.06 3.74 148.84 3.60 148.05 3.89C147.40 4.10 146.75 4.25 146.03 4.18C144.88 4.03 143.66 4.32 142.58 4.32C142.22 4.82 141.71 5.18 141.57 5.69C141.42 6.26 140.78 6.41 140.56 6.98C140.27 7.63 139.77 8.14 139.12 8.50C138.83 8.64 138.62 8.86 138.47 9.07C137.97 10.15 137.32 11.16 136.24 11.74C135.88 11.95 135.88 12.38 136.02 12.74C136.10 12.96 136.24 13.18 136.24 13.39C136.17 14.33 136.24 15.26 136.10 16.13C136.02 16.92 136.02 17.71 136.10 18.50C136.10 18.79 136.10 19.08 136.02 19.37C135.59 20.59 135.66 21.96 135.81 23.18C135.88 23.69 135.88 24.05 135.59 24.41C135.38 24.62 135.45 24.98 135.59 25.20C136.10 25.78 136.02 26.50 135.81 27.14C135.52 28.08 135.52 29.02 135.74 29.95C135.81 30.31 135.81 30.60 135.74 30.89C135.66 31.68 135.59 32.40 135.59 33.19C135.52 33.48 135.59 33.84 135.88 34.06C135.95 34.13 135.95 34.34 135.95 34.49C135.95 35.42 135.88 36.36 135.95 37.30C135.95 38.02 135.81 38.74 136.24 39.38C136.46 39.67 136.31 40.03 136.17 40.32C135.88 40.97 135.81 41.69 136.10 42.12C136.46 42.62 136.38 42.91 136.38 43.42C136.31 44.28 136.31 45.14 136.31 46.01C136.31 46.22 136.31 46.44 136.46 46.58C136.96 47.30 136.96 48.24 136.82 49.03C136.74 49.61 136.89 50.11 136.74 50.69C136.67 51.12 136.89 51.62 136.96 52.06C137.03 52.27 137.18 52.49 137.18 52.70C137.18 54.36 137.68 55.94 137.46 57.60C137.46 57.96 137.61 58.25 137.97 58.39C138.18 58.54 138.33 58.61 138.62 58.75C139.12 58.25 139.62 57.74 140.20 57.24C140.42 57.24 140.70 57.17 140.99 57.24C141.35 57.24 141.64 57.31 142 57.38C142.29 57.46 142.50 57.46 142.79 57.24C143.22 56.88 143.80 56.88 144.23 57.24C144.66 57.53 145.17 57.53 145.60 57.46C146.03 57.38 146.46 57.24 146.90 57.17C146.90 56.95 146.97 56.74 146.97 56.59C147.04 55.51 147.76 54.72 148.41 54.00C148.62 53.71 149.27 52.99 149.34 52.85C149.56 52.42 149.78 51.98 150.06 51.55C150.28 51.19 150.35 50.83 150.21 50.33C149.99 49.54 149.78 48.67 150.06 47.81C150.14 47.45 150.06 47.02 149.92 46.66C149.56 45.94 149.63 45.22 149.78 44.50C149.99 43.78 149.92 43.06 149.56 42.41C149.13 41.76 149.13 41.11 149.27 40.39C149.56 39.17 149.56 38.02 149.27 36.86C149.27 36.79 149.34 36.65 149.34 36.58C150.35 36.79 150.57 37.58 150.64 38.45C150.64 38.95 150.64 39.53 151.07 39.89C151.14 40.03 151.22 40.25 151.22 40.46C151.36 41.11 151.29 41.83 152.15 42.26C152.22 42.26 152.37 42.55 152.37 42.70C152.51 43.27 152.58 43.85 152.73 44.42C152.80 44.64 152.87 45.07 153.02 45.14C153.59 45.29 153.52 45.79 153.74 46.15C154.02 46.73 153.95 47.45 154.10 48.10C154.17 48.96 154.67 49.68 155.25 50.33C155.68 50.83 156.40 50.47 157.05 50.54C157.26 50.62 157.48 50.54 157.77 50.54C158.13 50.47 158.49 50.40 158.85 50.47C160.14 50.76 161.44 50.47 162.74 50.62C163.31 50.62 163.60 50.40 163.89 49.97C164.90 48.46 165.40 46.73 166.12 45.14C166.41 44.57 166.62 43.92 167.06 43.42C167.49 42.84 167.70 42.12 167.99 41.47C168.64 39.82 168.93 38.02 169.86 36.50C169.94 36.43 170.01 36.14 169.94 36.07C169.29 35.50 169.79 34.92 170.08 34.42C170.66 33.34 171.02 32.11 171.52 30.96C171.95 29.95 171.95 28.80 172.60 27.94C172.96 27.43 173.10 26.93 173.18 26.35C173.18 26.28 173.32 26.28 173.39 26.21C173.90 27.00 173.97 27.50 173.61 28.58C173.82 28.73 174.04 28.94 174.33 29.16C174.33 30.10 174.33 31.10 174.33 32.11C174.76 32.18 174.98 32.54 174.83 32.98C174.76 33.26 174.54 33.55 174.62 33.91C174.62 34.49 174.69 35.06 174.54 35.71C174.40 36.36 174.62 37.01 174.62 37.73C174.62 38.30 174.62 38.95 174.83 39.53C174.98 40.10 175.12 40.75 174.83 41.40C174.62 41.90 174.54 42.34 174.83 42.84C174.90 43.13 174.83 43.42 174.83 43.70C174.83 44.35 174.83 45.00 174.90 45.58C175.05 45.94 175.05 46.30 175.05 46.66C175.26 47.74 175.34 48.89 175.26 49.97C175.19 50.26 175.26 50.54 175.34 50.83C175.70 52.13 175.84 53.50 176.27 54.79C176.49 55.30 176.63 55.80 176.42 56.38C176.34 56.52 176.27 56.81 176.42 56.88C176.92 57.74 176.85 58.90 177.78 59.62C178 58.97 178.58 59.18 179.08 59.11C180.23 59.04 181.38 58.97 182.46 58.82C182.82 58.82 183.11 58.68 183.40 58.46C183.69 58.25 184.05 58.18 184.62 57.96ZM172.89 6.34C173.18 6.26 173.32 6.19 173.54 6.26C173.82 6.26 174.26 6.62 174.47 6.05C174.98 6.05 175.55 5.90 175.98 6.05C176.70 6.26 177.28 6.19 177.93 5.98C178.14 5.90 178.43 5.83 178.65 5.83C179.15 5.69 179.58 5.62 180.02 5.90C180.59 6.26 181.24 6.26 181.82 6.12C182.54 6.05 183.26 5.90 184.05 5.83C184.05 6.19 184.12 6.48 184.12 6.70C184.05 8.21 184.26 9.65 184.55 11.09C184.62 11.30 184.55 11.59 184.55 11.81C184.55 12.17 184.41 12.60 184.62 12.96C184.91 13.61 184.77 14.26 184.70 14.90C184.70 16.06 184.62 17.21 184.98 18.43C185.20 18.94 185.06 19.58 185.20 20.23C185.34 20.74 185.27 21.38 185.49 21.89C185.56 22.03 185.56 22.18 185.56 22.32C185.27 23.47 185.56 24.62 185.49 25.70C185.42 26.21 185.78 26.35 186.06 26.64C186.14 26.93 185.85 27.00 185.78 27.22C185.63 27.43 185.49 27.72 185.63 27.86C185.85 28.15 185.92 28.44 185.92 28.87C185.85 29.16 185.99 29.52 186.14 29.81C186.42 30.67 186.42 31.54 186.35 32.40C186.21 33.77 186.50 35.14 186.35 36.50C186.35 36.65 186.28 36.86 186.35 36.94C187.14 37.94 186.71 39.10 186.93 40.10C187.07 41.18 187.07 42.26 186.86 43.27C186.78 43.56 186.78 43.85 186.78 44.14C186.86 46.15 186.93 48.24 187.07 50.33C187.07 50.40 187 50.54 186.93 50.83C186.64 50.83 186.28 50.83 185.99 50.98C185.49 51.12 184.84 51.26 184.41 51.62C183.90 51.98 183.47 51.91 182.90 51.98C182.82 51.62 182.68 51.41 182.68 51.12C182.68 50.62 182.75 50.18 182.75 49.68C182.75 49.46 182.82 49.18 182.75 48.96C182.25 48.17 182.39 47.23 182.32 46.30C182.32 45.58 182.39 44.86 182.10 44.21C182.03 43.92 182.10 43.56 182.18 43.34C182.54 42.55 182.39 41.76 181.89 40.97C182.32 40.46 182.32 39.82 182.32 39.24C182.25 38.52 182.25 37.80 182.25 37.08C182.25 36.22 182.32 35.42 181.89 34.56C181.67 34.13 181.82 33.48 181.82 32.90C181.82 32.69 181.89 32.47 181.82 32.33C181.46 31.25 181.38 30.10 181.38 28.94C181.31 27.72 180.95 26.50 181.24 25.27C181.24 24.98 181.24 24.70 181.17 24.41C180.74 23.11 180.95 21.74 180.88 20.38C180.88 19.37 180.81 18.29 180.59 17.28C180.52 16.99 180.45 16.63 180.45 16.27C180.38 15.55 180.30 14.90 180.02 14.18C179.87 13.82 179.80 13.39 179.73 12.96C179.66 12.24 179.58 11.52 179.51 10.80C179.30 10.73 179.08 10.66 178.94 10.58C177.21 10.51 177.28 10.66 176.92 12.02C176.56 13.25 176.06 14.54 175.62 15.77C175.19 17.06 174.76 18.36 174.18 19.58C174.04 19.87 173.97 20.16 173.97 20.45C173.90 21.38 173.61 22.18 173.03 22.90C172.46 23.54 172.17 24.34 172.17 25.27C172.17 25.78 172.02 26.21 171.81 26.64C171.52 27.50 171.16 28.37 170.80 29.16C170.37 30.10 169.86 31.03 169.94 32.11C169.94 32.69 169.72 33.41 169.29 33.84C168.42 34.78 168.28 35.93 168.14 37.15C168.06 37.51 167.99 37.87 167.99 38.23C167.99 39.17 167.49 39.89 166.91 40.54C166.62 40.90 166.26 41.18 165.69 41.18C165.26 41.18 164.82 41.26 164.54 41.62C164.39 41.76 164.25 41.76 164.03 41.76C163.02 41.47 162.02 41.76 161.08 42.05C159.93 42.34 159.57 42.12 159.21 40.97C159.06 40.32 158.92 39.60 158.70 38.95C158.49 38.38 158.34 37.73 157.77 37.30C157.62 37.22 157.55 37.01 157.48 36.86C157.41 35.64 156.90 34.56 156.40 33.48C156.11 32.98 156.11 32.26 155.68 31.82C155.54 31.68 155.54 31.32 155.61 31.10C155.68 30.38 155.39 29.81 154.96 29.30C154.24 28.44 153.81 27.58 153.88 26.42C153.88 25.78 153.81 25.27 153.23 24.84C152.80 24.48 152.58 23.90 152.73 23.26C152.80 22.82 152.73 22.54 152.37 22.18C152.22 22.03 152.15 21.82 152.08 21.60C151.79 20.95 151.50 20.30 151.29 19.58C151.14 19.15 151.14 18.72 151.07 18.07C150.64 17.71 150.35 17.14 150.35 16.34C150.35 15.84 149.92 15.41 149.70 14.90C149.56 14.62 149.27 14.33 149.27 14.04C149.27 12.96 148.55 12.24 148.05 11.38C148.05 11.30 147.90 11.30 147.76 11.23C147.40 11.74 147.26 12.38 147.18 13.03C147.18 14.11 147.18 15.19 147.18 16.20C147.18 16.63 147.18 16.99 147.18 17.35C147.04 18.50 146.97 19.58 147.47 20.59C147.62 20.95 147.62 21.31 147.40 21.67C147.04 22.18 147.04 22.68 147.04 23.18C147.04 23.62 147.04 23.98 147.47 24.19C147.69 24.34 147.83 24.62 147.62 24.91C147.11 25.49 147.18 26.21 147.33 26.86C147.47 28.15 147.62 29.38 147.83 30.67C147.90 31.25 147.83 31.75 147.76 32.33C147.69 32.83 147.62 33.26 147.62 33.77C147.76 34.63 147.90 35.42 148.05 36.29C148.05 36.50 148.05 36.79 148.05 37.01C148.12 38.45 148.12 39.89 148.12 41.33C148.12 41.47 148.05 41.62 148.12 41.76C148.55 42.62 148.34 43.56 148.41 44.42C148.41 45.00 148.48 45.50 148.91 45.86C148.26 46.80 148.12 47.74 148.55 48.74C148.70 48.96 148.62 49.32 148.62 49.61C148.70 50.33 148.70 50.33 148.12 51.12C147.47 50.54 146.68 50.90 145.96 50.90C145.24 50.90 144.52 50.98 143.80 50.98C143.73 50.83 143.58 50.62 143.58 50.40C143.58 49.61 143.51 48.89 143.80 48.10C143.94 47.74 143.87 45.07 143.80 44.57C143.73 44.42 143.66 44.21 143.66 44.06C143.87 42.91 143.44 41.83 143.44 40.75C143.51 40.46 143.37 40.18 143.22 39.96C142.86 39.38 142.86 38.88 143.08 38.30C143.51 37.51 143.44 36.65 143.44 35.78C143.51 35.50 143.37 35.21 143.22 34.99C142.79 34.27 142.65 33.62 143.08 32.90C143.30 32.62 143.30 32.26 143.22 31.90C143.15 31.10 143.22 30.31 143.01 29.52C142.72 28.58 142.94 27.58 143.08 26.64C143.15 25.99 143.15 25.27 143.15 24.62C143.15 24.48 143.15 24.19 143.01 24.12C142.43 23.62 142.58 22.97 142.58 22.39C142.65 21.46 142.43 20.52 142.86 19.66C143.01 19.37 142.94 18.94 142.94 18.50C142.86 17.14 142.94 15.70 143.08 14.26C143.15 13.54 142.94 12.82 142.79 12.17C142.65 11.45 142.58 10.80 142.86 10.15C142.94 9.94 142.94 9.65 142.94 9.36C143.01 8.35 143.01 7.42 143.01 6.48C143.08 6.26 143.15 5.98 143.22 5.76C143.66 5.62 144.09 5.47 144.45 5.47C145.31 5.47 146.10 5.40 146.82 4.97C147.04 4.82 147.47 4.97 147.90 4.90C148.55 5.76 149.20 6.62 149.85 7.49C150.21 8.06 150.50 8.64 150.42 9.36C150.35 9.65 150.42 9.94 150.71 10.15C150.78 10.22 150.93 10.37 150.93 10.44C151.07 11.30 151.65 11.74 152.37 12.10C152.51 13.97 153.30 15.62 154.31 17.14C154.53 17.42 154.74 17.64 154.67 18C154.60 19.08 155.46 19.80 155.68 20.81C155.68 20.95 156.11 21.02 156.18 21.17C156.69 21.89 157.12 22.54 157.26 23.40C157.41 24.41 157.84 25.34 158.34 26.28C158.99 27.36 159.42 28.51 159.93 29.66C160.07 29.88 160.14 30.17 160.36 30.38C160.86 30.89 161.15 31.54 161.51 32.18C162.09 33.12 162.66 34.06 162.95 35.06C163.10 35.50 163.38 35.86 163.74 36.07C164.10 36.29 164.54 36.22 164.75 35.86C164.82 35.78 164.90 35.71 164.90 35.64C164.97 34.56 165.54 33.55 165.69 32.47C165.90 31.18 165.90 29.81 166.48 28.58C166.55 28.30 166.55 28.01 166.62 27.72C166.70 27.14 166.77 26.50 166.98 25.92C167.20 25.34 166.91 24.70 167.49 24.34C167.49 24.26 167.56 24.19 167.49 24.19C167.13 23.18 167.99 22.54 168.28 21.74C168.50 20.88 168.71 20.02 168.93 19.15C169.07 18.58 169.22 18 169.36 17.42C169.65 16.56 169.65 15.55 170.22 14.76C170.44 14.47 170.44 14.04 170.44 13.61C170.44 13.10 170.51 12.67 170.87 12.31C170.94 12.24 171.09 12.10 171.09 11.95C171.09 10.58 171.88 9.43 172.10 8.14C172.24 7.56 172.60 6.98 172.89 6.34Z"/></svg>