<svg xmlns="http://www.w3.org/2000/svg" xmlns:xlink="http://www.w3.org/1999/xlink" width="133" height="72.00000000000001"><path fill="#ffc107" stroke="#8B6914" d="M115.66 32.33C115.81 32.83 116.02 33.41 116.17 33.91C116.24 34.06 116.24 34.27 116.38 34.27C117.18 34.63 117.10 35.35 117.03 36C117.03 36.79 117.18 37.51 117.39 38.23C117.46 38.52 117.61 38.81 117.61 39.10C117.54 39.53 117.61 39.89 117.97 40.25C118.18 40.39 118.18 40.75 118.11 41.04C117.75 42.48 117.82 43.85 118.33 45.29C118.54 45.72 118.54 46.15 118.26 46.58C118.11 46.80 118.04 47.09 118.11 47.30C118.40 48.31 118.18 49.39 118.11 50.40C118.04 50.90 117.97 51.41 118.11 51.84C118.40 52.78 118.54 53.64 118.04 54.58C117.90 54.72 117.90 54.94 117.97 55.08C118.26 55.80 118.40 56.45 118.33 57.17C118.33 57.82 118.69 58.10 119.34 58.18C120.06 58.18 120.70 58.32 121.28 58.61C121.93 58.97 122.58 59.18 123.30 58.97C123.51 58.90 123.73 58.97 123.87 59.04C124.66 59.33 125.46 59.26 126.32 59.18C126.46 58.97 126.61 58.82 126.68 58.61C126.82 58.32 126.90 58.03 126.97 57.74C127.11 57.31 127.33 56.88 127.47 56.45C128.19 56.23 127.69 55.51 127.98 55.08C127.98 55.01 128.05 54.86 128.12 54.86C128.77 54.43 128.77 53.71 128.84 53.06C128.91 52.56 128.98 52.20 129.42 51.84C129.92 51.34 129.70 50.69 129.56 50.04C128.91 49.75 128.98 49.18 129.06 48.67C129.27 46.87 129.06 45.07 129.34 43.27C129.42 43.06 129.34 42.84 129.34 42.55C129.34 41.98 129.34 41.40 129.27 40.82C129.27 39.89 129.13 38.88 129.42 37.87C129.42 37.80 129.34 37.66 129.34 37.51C129.27 36.79 129.20 36.14 129.42 35.50C129.49 35.21 129.49 34.70 129.27 34.56C128.62 33.77 128.62 32.76 128.41 31.90C128.34 31.68 128.26 31.46 128.34 31.32C128.84 30.53 128.41 29.81 128.12 29.02C128.05 28.73 127.83 28.44 127.76 28.15C127.47 27.00 127.40 25.85 126.46 25.06C126.32 24.91 126.25 24.70 126.25 24.55C125.89 23.76 125.46 23.11 124.52 22.90C124.23 22.82 123.94 22.61 124.02 22.18C124.02 22.10 123.94 22.03 123.87 21.96C122.58 20.88 121.21 19.87 119.48 19.80C118.90 19.80 118.33 19.73 117.75 19.58C117.18 19.44 116.53 19.37 115.81 19.66C115.16 19.87 114.44 20.16 113.72 20.23C113 20.30 112.35 20.66 111.63 20.74C110.84 20.74 110.19 21.24 109.54 21.46C109.40 21.46 109.26 21.46 108.97 21.53C109.04 21.02 109.11 20.59 108.82 20.16C108.61 19.80 108.61 19.30 108.90 18.94C109.18 18.58 109.18 18.14 109.18 17.71C109.26 17.35 109.04 17.06 108.75 16.99C108.10 16.85 107.53 16.56 106.81 16.70C106.09 16.85 105.44 16.70 104.79 16.27C104.22 15.84 103.50 15.84 102.92 16.42C102.70 16.63 102.42 16.85 102.13 16.99C101.34 17.42 100.90 18 100.83 18.86C100.11 19.37 99.32 19.80 98.67 20.38C98.17 20.88 97.45 21.46 97.52 22.25C97.52 23.40 97.23 24.55 97.38 25.63C97.52 26.64 97.66 27.65 97.30 28.66C97.23 28.73 97.23 28.94 97.23 29.02C97.66 30.10 97.59 31.10 97.16 32.18C96.73 33.41 96.87 34.70 97.02 36C97.16 37.15 97.30 38.23 96.94 39.38C96.73 40.18 96.73 40.97 97.02 41.76C97.23 42.41 97.23 43.06 97.09 43.63C96.94 44.21 96.80 44.71 97.23 45.22C97.38 45.36 97.38 45.50 97.38 45.65C97.30 46.51 97.16 47.45 97.09 48.31C97.09 48.89 96.80 49.54 97.23 50.04C97.59 50.47 97.52 50.98 97.23 51.34C97.02 51.77 97.02 52.13 97.09 52.56C97.16 53.21 97.38 53.93 96.87 54.50C96.80 54.65 96.87 54.86 96.87 55.08C97.02 56.09 97.16 57.17 97.38 58.32C97.52 58.54 97.88 58.82 98.17 59.11C98.67 58.61 99.25 58.39 99.75 58.68C100.40 58.97 101.19 58.97 101.84 59.26C102.42 59.54 103.06 59.62 103.64 59.54C104.22 59.40 104.79 59.54 105.30 59.76C105.58 59.90 105.94 59.90 106.30 59.90C106.59 59.33 106.95 58.75 107.17 58.25C107.67 56.95 108.25 55.66 108.61 54.36C108.82 53.50 108.97 52.63 108.97 51.77C108.90 51.26 108.82 50.76 108.90 50.26C108.97 49.61 108.90 48.96 108.68 48.24C108.54 47.81 108.46 47.23 108.61 46.73C108.68 46.15 108.75 45.58 108.68 45.00C108.54 44.06 108.39 43.06 108.25 42.05C108.25 41.62 108.25 41.18 108.25 40.75C108.39 39.10 108.68 37.44 108.46 35.78C108.32 34.70 108.46 33.70 108.61 32.69C108.75 31.97 108.90 31.32 109.33 30.82C109.54 30.89 109.76 30.96 109.90 30.89C110.05 30.74 110.19 30.46 110.34 30.24C111.92 29.95 113.36 30.53 114.66 31.39C114.66 31.61 114.73 31.90 114.73 32.11C115.09 32.18 115.38 32.26 115.66 32.33ZM102.42 37.94C102.06 37.58 102.06 37.15 102.42 36.79C102.20 36.07 102.56 35.50 102.70 34.85C102.85 34.27 102.92 33.84 102.49 33.34C102.13 33.05 102.27 32.54 102.34 32.11C102.49 31.18 102.70 30.24 102.85 29.30C102.92 28.66 103.06 28.01 102.70 27.36C102.56 27.07 102.63 26.57 102.78 26.28C102.92 25.63 102.92 25.06 102.92 24.41C102.92 23.76 102.99 23.11 103.28 22.46C103.57 21.67 103.57 20.74 103.57 19.94C103.50 19.15 103.86 18.43 103.35 17.71C103.21 17.50 103.64 16.99 103.86 16.92C104 16.92 104.07 16.92 104.14 16.92C105.30 17.57 106.52 17.57 107.74 17.93C107.89 19.73 107.24 21.38 107.60 23.11C108.25 23.40 108.82 23.26 109.40 22.90C111.06 22.03 112.64 21.02 114.58 21.10C114.94 21.10 115.23 20.88 115.52 20.81C116.17 20.59 116.74 20.52 117.32 20.74C117.75 20.88 118.18 20.95 118.62 20.88C119.34 20.81 120.06 21.10 120.70 21.24C120.85 21.31 121.06 21.46 121.14 21.60C121.28 21.96 121.50 22.10 121.86 22.10C122.43 22.18 122.79 22.61 123.15 22.97C124.02 23.90 124.81 24.91 125.74 25.85C126.10 26.28 126.32 26.71 126.39 27.36C126.54 28.66 126.68 30.02 127.18 31.25C127.33 31.68 127.69 32.04 127.76 32.62C128.05 33.91 127.98 35.14 127.98 36.43C127.98 37.80 127.83 39.24 128.26 40.61C128.41 41.04 128.26 41.62 128.19 42.12C128.12 42.70 127.98 43.27 128.19 43.85C128.26 44.28 128.26 44.71 128.05 45.22C127.69 45.79 127.83 46.51 128.05 47.16C128.26 47.59 128.26 48.10 128.26 48.53C128.26 49.39 128.26 50.26 128.26 51.12C127.76 51.12 127.26 51.26 126.90 51.12C126.32 50.69 125.74 50.83 125.17 50.90C124.52 50.98 124.02 50.98 123.51 50.47C123.37 49.97 123.80 49.68 124.02 49.25C123.80 48.67 123.58 48.02 123.44 47.38C123.37 47.02 123.44 46.66 123.44 46.30C123.58 45.36 123.58 44.50 123.22 43.56C122.94 43.06 123.08 42.48 123.22 41.90C123.37 41.40 123.30 41.04 123.15 40.54C122.86 39.74 122.72 38.95 122.58 38.16C122.50 37.66 122.50 37.22 122.22 36.79C122.14 36.65 122.14 36.50 122.14 36.36C122.29 34.92 121.78 33.55 121.42 32.18C121.28 31.68 121.14 31.25 120.78 30.96C120.85 30.60 120.99 30.24 121.06 29.88C121.06 29.59 120.85 29.66 120.63 29.81C120.49 29.38 120.27 29.02 120.13 28.66C119.77 27.36 119.77 27.36 118.90 26.50C118.33 25.99 117.82 25.56 117.25 25.13C115.88 23.90 114.15 24.05 112.50 23.90C111.85 23.90 111.42 24.41 110.84 24.70C110.55 24.84 110.34 25.06 110.05 25.27C108.75 25.99 108.25 27.14 108.10 28.58C107.96 29.59 107.82 30.60 107.67 31.54C107.46 33.19 107.02 34.78 107.38 36.36C107.46 36.72 107.38 37.08 107.24 37.37C106.95 38.45 107.02 39.53 107.38 40.61C107.67 41.62 107.53 42.62 107.46 43.56C107.46 43.78 107.31 43.99 107.31 44.14C107.74 45.94 107.02 47.74 107.46 49.54C107.53 49.82 107.53 50.04 107.46 50.26C107.38 50.83 107.31 51.34 107.53 51.91C107.67 52.49 107.60 53.06 107.38 53.57C107.24 53.64 107.10 53.71 107.10 53.64C106.38 53.14 105.51 53.21 104.72 53.35C104.07 53.50 103.42 53.57 102.78 53.42C102.34 53.06 102.13 52.56 102.49 52.13C102.85 51.62 102.78 51.12 102.70 50.62C102.42 49.10 102.63 47.59 102.13 46.08C102.13 45.94 102.13 45.79 102.13 45.65C102.63 44.57 102.13 43.49 102.42 42.41C102.63 41.40 102.56 40.25 102.63 39.17C102.63 38.95 102.42 38.74 102.34 38.52C102.34 38.30 102.34 38.16 102.42 37.94Z"/></svg>