<svg xmlns="http://www.w3.org/2000/svg" xmlns:xlink="http://www.w3.org/1999/xlink" width="78" height="72.00000000000001"><path fill="#ffc107" stroke="#8B6914" d="M67.93 18.72C67.50 18.65 67.21 18.58 66.85 18.50C66.56 18.36 66.20 18.14 65.84 17.93C65.55 17.71 65.26 17.50 64.83 17.57C64.62 17.57 64.40 17.50 64.33 17.35C63.75 16.85 63.03 16.92 62.38 16.92C61.16 16.92 59.94 16.92 58.64 16.92C57.63 16.92 56.55 16.92 55.54 16.92C54.82 16.99 54.10 16.99 53.46 17.35C53.24 17.50 52.88 17.50 52.59 17.50C52.30 17.57 52.02 17.50 51.73 17.57C50.22 18.14 48.56 18.36 47.05 19.22C45.32 20.23 43.66 21.31 42.37 22.90C41.58 23.83 40.86 24.84 39.56 25.27C39.42 25.34 39.20 25.56 39.13 25.78C38.98 26.06 38.84 26.50 38.77 26.86C38.70 27.65 38.12 28.08 37.69 28.66C37.47 28.87 37.11 29.02 36.90 29.16C36.90 29.30 36.82 29.38 36.82 29.52C36.75 30.96 35.89 32.18 35.46 33.55C35.46 33.70 35.31 33.77 35.24 33.91C34.38 34.78 34.23 35.86 34.45 36.94C34.59 37.80 34.59 38.45 34.23 39.17C33.94 39.53 34.02 39.96 34.16 40.39C34.52 41.62 35.24 42.84 34.81 44.21C34.81 44.35 34.88 44.50 34.95 44.64C35.17 45.00 35.38 45.36 35.53 45.72C35.82 46.37 36.25 46.94 36.32 47.59C36.46 48.46 36.90 48.96 37.62 49.25C37.83 50.54 38.62 51.48 39.49 52.34C40.35 52.27 40.93 52.63 41.43 53.28C41.72 53.71 42.22 54.00 42.66 54.29C44.10 55.08 45.68 55.51 47.19 56.02C47.84 56.30 48.56 56.38 49.28 56.38C50.43 56.45 51.66 56.66 52.81 56.88C53.46 56.95 54.03 57.10 54.68 56.95C55.11 56.88 55.62 56.95 56.12 56.95C56.41 56.95 56.70 57.10 56.98 56.95C57.70 56.52 58.57 56.74 59.22 56.66C59.65 56.30 59.94 56.02 60.30 55.80C60.73 55.58 61.16 55.30 61.66 55.30C62.31 55.30 62.89 55.01 63.39 54.65C63.97 54.36 64.40 54.00 64.98 53.71C66.85 52.78 68.22 51.26 69.51 49.68C69.80 49.39 69.87 49.03 70.09 48.67C70.52 47.88 70.81 46.94 71.74 46.44C71.89 46.37 71.96 46.15 72.10 46.01C72.39 45.43 72.68 44.78 72.97 44.21C73.26 43.78 73.47 43.13 73.90 42.84C74.62 42.41 74.84 41.83 74.91 41.11C75.06 40.03 75.20 39.02 75.85 38.09C76.06 37.80 76.14 37.30 76.14 36.86C76.28 35.21 76.50 33.55 76.50 31.90C76.50 31.10 76.57 30.31 76.42 29.52C76.28 28.80 76.28 28.01 75.78 27.36C75.70 27.14 75.70 26.86 75.56 26.64C75.49 26.28 75.34 25.92 75.13 25.63C74.62 24.84 74.26 24.05 73.47 23.47C73.18 23.26 72.97 22.90 72.75 22.61C72.54 22.18 72.25 21.89 71.82 21.89C71.53 21.89 71.31 21.82 71.24 21.53C71.17 21.17 71.02 21.02 70.66 20.88C70.23 20.74 69.87 20.52 69.51 20.09C69.44 19.94 69.22 19.87 69.08 19.80C68.43 19.66 68.07 19.30 67.93 18.72ZM74.41 39.74C73.98 39.89 73.62 40.25 73.33 40.82C73.11 41.33 72.61 41.62 72.68 42.34C72.68 42.62 72.39 42.98 72.18 43.34C72.03 43.70 71.74 43.99 71.60 44.28C70.74 46.22 69.08 47.23 67.35 48.24C66.70 48.67 65.91 48.96 65.34 49.54C64.76 49.97 64.33 50.40 63.61 50.47C63.46 50.47 63.25 50.54 63.10 50.69C62.46 51.12 61.81 51.26 61.09 51.19C60.94 51.19 60.73 51.19 60.66 51.26C59.58 51.84 58.50 51.55 57.42 51.48C56.70 51.41 56.05 51.19 55.33 51.34C55.18 51.34 54.97 51.26 54.90 51.19C54.32 50.90 53.82 50.98 53.24 51.12C52.52 51.41 52.02 51.19 51.66 50.54C51.15 50.54 50.79 50.98 50.29 50.69C49.93 50.47 49.42 50.47 49.28 49.97C49.28 49.82 49.14 49.68 48.99 49.68C47.98 49.68 47.19 48.89 46.11 48.89C45.90 48.10 45.46 47.59 44.82 47.23C44.31 46.87 43.81 46.44 43.38 46.01C43.09 45.79 42.80 45.58 42.44 45.43C41.86 45.22 41.43 44.64 41.29 43.99C41.22 43.85 41.29 43.63 41.14 43.56C40.35 42.48 40.14 41.11 39.42 39.96C39.20 39.53 38.98 39.02 39.27 38.45C39.42 38.23 39.34 37.94 39.27 37.66C39.27 37.30 39.20 37.01 39.13 36.65C38.98 35.78 38.91 34.99 39.20 34.13C39.34 33.70 39.56 33.19 39.13 32.62C38.84 32.26 39.20 31.68 39.49 31.54C39.85 31.25 39.92 30.96 39.78 30.67C39.56 30.02 39.78 29.38 39.99 28.80C40.64 26.93 41.79 25.42 42.94 23.90C43.09 23.69 43.30 23.62 43.52 23.47C44.24 22.97 44.82 22.46 44.82 21.60C45.82 21.31 46.62 20.88 47.34 20.30C47.55 20.09 47.98 19.87 48.34 19.87C48.85 19.80 49.21 19.58 49.57 19.30C50 19.01 50.43 18.79 50.86 18.65C51.22 18.43 51.58 18.36 52.09 18.58C52.74 18.94 53.53 18.72 54.18 18.36C54.82 18.07 55.47 17.86 56.19 18.29C56.41 18.43 56.70 18.36 56.91 18.29C57.56 18.22 58.28 18.07 59 17.86C59.86 17.71 60.80 17.50 61.59 18C62.46 17.86 63.10 18.72 63.97 18.36C64.69 18.72 65.48 19.01 66.27 19.30C66.34 19.58 66.42 19.94 66.49 20.30C67.14 20.30 67.86 20.38 68.43 20.38C69.01 20.66 68.94 21.53 69.58 21.67C69.94 21.82 70.30 22.03 70.88 22.32C71.24 22.90 71.74 23.62 72.54 24.19C73.11 24.62 73.62 25.13 73.69 25.92C73.76 26.28 74.05 26.57 74.34 26.64C74.77 26.71 74.84 27.07 74.84 27.36C74.91 28.15 74.91 28.87 74.91 29.66C74.91 30.10 75.06 30.53 75.34 30.74C75.34 32.76 75.27 34.78 75.20 36.79C74.98 37.22 74.41 37.51 74.41 38.09C74.41 38.59 74.41 39.10 74.41 39.74ZM53.17 23.11C53.02 22.97 52.81 22.82 52.59 22.68C52.59 22.68 52.30 22.82 52.30 22.90C52.52 23.47 52.16 23.54 51.73 23.54C50.94 23.47 50.22 23.69 49.78 24.26C49.42 24.84 48.78 25.13 48.27 25.56C47.41 26.28 46.40 26.86 45.82 27.86C45.32 28.66 44.96 29.45 44.53 30.24C44.17 30.89 43.59 31.54 44.17 32.33C44.24 32.40 44.17 32.54 44.17 32.62C44.02 33.26 44.02 33.98 43.81 34.63C43.45 35.93 43.74 37.01 44.53 38.09C44.67 38.30 44.89 38.59 44.82 38.88C44.82 39.82 45.39 40.32 46.11 40.75C46.18 40.82 46.40 40.97 46.40 40.97C46.26 41.62 46.69 41.69 47.05 41.98C47.34 42.19 47.48 42.55 47.77 42.77C48.20 42.98 48.49 43.20 48.63 43.70C48.63 43.78 48.78 43.92 48.92 43.92C49.71 43.99 50.22 44.50 50.79 44.93C51.22 45.29 51.73 45.58 52.30 45.65C53.31 45.86 54.39 45.94 55.40 46.30C56.41 46.73 57.42 46.66 58.42 46.58C59.36 46.58 60.22 46.37 61.02 45.86C61.45 45.58 61.95 45.36 62.38 45.14C62.53 45.22 62.67 45.22 62.74 45.22C63.75 45.50 63.97 45.43 64.33 44.57C64.47 44.14 64.76 43.92 65.12 43.70C65.62 43.49 66.20 43.13 66.13 42.62C66.13 42.12 66.34 41.90 66.56 41.62C67.14 40.82 67.50 39.89 67.78 38.88C67.93 38.45 68.14 38.02 68.29 37.58C68.72 36.79 69.44 36 69.01 34.99C68.94 34.92 69.01 34.92 69.01 34.85C69.15 34.20 69.15 33.55 69.01 32.83C69.01 32.69 69.01 32.54 69.08 32.40C69.51 31.61 69.15 30.89 68.79 30.17C68.50 29.52 68.07 29.02 67.78 28.51C67.50 27.86 67.06 27.29 66.78 26.64C66.34 25.56 65.26 25.13 64.62 24.19C64.54 24.12 64.47 24.05 64.40 24.05C63.82 24.12 63.39 23.98 63.10 23.54C62.31 23.69 61.74 23.18 61.09 22.90C60.51 22.68 59.86 22.68 59.36 22.39C58.50 21.96 58.35 21.89 57.63 22.39C57.20 22.82 56.70 22.90 56.12 22.75C55.11 22.54 54.10 22.54 53.17 23.11ZM52.95 26.64C53.24 26.64 53.67 26.57 54.18 26.57C54.25 26.50 54.54 26.50 54.54 26.57C54.90 27.14 55.40 27.00 55.98 27.00C56.48 27.00 56.91 27.36 57.34 27.65C57.78 27.86 58.14 28.30 58.57 28.44C59.36 28.73 59.79 29.38 60.01 30.10C60.15 30.60 60.37 30.89 60.87 31.18C61.09 31.32 61.30 31.68 61.45 31.97C61.88 32.76 62.24 33.62 62.67 34.49C62.67 34.56 62.74 34.63 62.82 34.70C62.96 35.21 62.53 35.64 62.82 36.14C63.10 36.43 63.10 36.94 63.18 37.37C63.32 37.73 63.32 38.09 63.39 38.45C63.54 39.17 63.54 39.74 63.18 40.39C62.96 40.82 62.96 41.26 63.32 41.76C63.68 42.19 63.25 43.27 62.74 43.63C62.10 44.06 61.45 44.42 60.66 44.57C60.37 44.64 60.01 44.71 59.72 44.86C58.78 45.29 57.85 45.22 56.91 45.22C56.55 45.29 56.26 45.14 55.90 45.14C55.04 45.14 54.10 45.29 53.38 44.57C53.24 44.42 52.95 44.35 52.66 44.28C51.73 44.21 51.01 43.70 50.14 43.34C49.78 43.27 49.42 42.98 49.28 42.70C48.92 41.98 48.06 41.69 47.98 40.82C47.55 40.46 47.19 39.96 46.76 39.67C45.68 38.95 45.32 37.94 45.39 36.72C45.39 36.36 45.39 36.14 45.18 35.86C44.96 35.64 44.82 35.21 44.82 34.92C44.89 34.27 44.96 33.55 45.03 32.90C45.25 31.61 45.90 30.53 46.26 29.30C46.47 28.66 46.90 28.30 47.48 28.15C47.98 28.01 48.42 27.79 48.78 27.50C48.92 27.36 49.06 27.22 49.21 27.22C50.36 27.00 51.51 26.50 52.95 26.64Z"/></svg>